IKResults
version=1
nRows=8
nColumns=40
inDegrees=yes

Units are S.I. units (second, meters, Newtons, ...)
Angles are in degrees.

endheader
time	pelvis_tilt	pelvis_list	pelvis_rotation	pelvis_tx	pelvis_ty	pelvis_tz	hip_flexion_r	hip_adduction_r	hip_rotation_r	knee_angle_r	knee_angle_r_beta	ankle_angle_r	subtalar_angle_r	mtp_angle_r	hip_flexion_l	hip_adduction_l	hip_rotation_l	knee_angle_l	knee_angle_l_beta	ankle_angle_l	subtalar_angle_l	mtp_angle_l	lumbar_extension	lumbar_bending	lumbar_rotation	arm_flex_r	arm_add_r	arm_rot_r	elbow_flex_r	pro_sup_r	wrist_flex_r	wrist_dev_r	arm_flex_l	arm_add_l	arm_rot_l	elbow_flex_l	pro_sup_l	wrist_flex_l	wrist_dev_l
      0.26000000	     -4.24158371	      2.78941930	     -1.38561631	     -0.79398868	      0.90425235	      0.22350711	     -8.05044205	     -1.54266159	     -1.08454947	    -31.61404822	     -0.55176923	     -0.13982058	     -2.59329812	    -12.54290231	     34.59406024	     -8.45155820	      1.04140143	    -80.12992645	     -1.39853105	     13.24906135	     18.41879381	     13.53368480	    -15.14824914	     -2.51423407	     11.46612178	    -12.82981877	    -28.23846229	      7.66416392	    136.09859723	     89.95437384	      0.00000000	      0.00000000	    -37.32932442	     25.38158905	     -0.44015296	    125.79521068	     89.95437384	      0.00000000	      0.00000000
      0.27000000	     -4.15605195	      4.05164629	     -0.79262005	     -0.75406147	      0.91245984	      0.22216842	    -11.18069025	     -3.06512830	     -1.72883920	    -28.92977492	     -0.50491982	     -7.91885890	     -2.72139719	    -10.66806626	     36.23170468	     -9.97935164	      1.61236099	    -76.45403290	     -1.33437460	     12.53029498	     18.15183503	     13.15227406	    -14.82770795	     -3.97261586	     11.55755354	    -12.86690146	    -27.62317910	      7.75606463	    138.05305101	     89.95437384	      0.00000000	      0.00000000	    -39.16881102	     25.56735276	      0.74733288	    126.26992663	     89.95437384	      0.00000000	      0.00000000
      0.28000000	     -4.29800680	      5.39759887	     -0.31873443	     -0.71420916	      0.92052694	      0.22082493	    -13.70138113	     -4.70843525	     -2.63049848	    -26.43896254	     -0.46144695	    -16.70658871	     -3.11872265	     -8.35865729	     37.62906888	    -11.55723267	      2.21832654	    -72.04960813	     -1.25750289	     11.23105984	     17.81232416	     12.82504779	    -14.28886269	     -5.55503871	     11.54837306	    -12.81622937	    -27.14043987	      8.15761449	    139.64908775	     89.95437384	      0.00000000	      0.00000000	    -40.87016410	     25.63399324	      1.81740111	    126.59344130	     89.95437384	      0.00000000	      0.00000000
      0.29000000	     -4.44648270	      6.41951740	      0.01150767	     -0.67394323	      0.92833093	      0.22000328	    -16.14882655	     -5.83721402	     -2.91602762	    -23.83500199	     -0.41599926	    -23.46564324	     -3.40170410	     -5.22126778	     38.49876646	    -12.69444647	      2.63717884	    -67.10444606	     -1.17119353	      9.58198825	     17.25893937	     12.18629265	    -13.73972763	     -6.86352712	     11.60596315	    -12.85978256	    -26.66622851	      8.59224766	    140.91907394	     89.95437384	      0.00000000	      0.00000000	    -42.46671181	     25.50584086	      2.82691100	    126.87029522	     89.95437384	      0.00000000	      0.00000000
      0.30000000	     -4.91116435	      6.71801365	      0.41209517	     -0.63421609	      0.93511971	      0.21998642	    -17.68700359	     -6.01846179	     -3.05493703	    -22.19708539	     -0.38741222	    -27.35748922	     -3.51684952	     11.47953381	     39.34830855	    -12.94249727	      2.76511339	    -61.86882627	     -1.07981472	      6.80219656	     16.46632717	      6.22607599	    -12.88095623	     -7.45750083	     11.62127339	    -12.89908818	    -26.33546745	      9.24800242	    141.87904316	     89.95437384	      0.00000000	      0.00000000	    -43.87911576	     25.32761606	      3.65157122	    127.13175958	     89.95437384	      0.00000000	      0.00000000
      0.31000000	     -5.42673934	      7.01586314	      0.81986020	     -0.59468632	      0.94081277	      0.21973709	    -18.75583209	     -6.37427241	     -4.30894473	    -20.99285073	     -0.36639436	    -31.92044163	     -4.14658934	     12.65260070	     39.89710265	    -13.27828791	      2.79668518	    -56.35752898	     -0.98362444	      4.01310423	     15.17388878	      6.24717898	    -11.97486549	     -8.04056069	     11.49797821	    -12.91486080	    -26.15164237	      9.84583235	    142.60302576	     89.95437384	      0.00000000	      0.00000000	    -45.16018843	     25.13615816	      4.37304365	    127.44629975	     89.95437384	      0.00000000	      0.00000000
      0.32000000	     -5.82281918	      6.86181500	      1.32354734	     -0.55521521	      0.94540515	      0.21995320	    -19.74987175	     -5.90277018	     -4.87332896	    -20.26393109	     -0.35367232	    -33.81066442	     -5.88214532	     19.20707079	     40.02531095	    -13.13862383	      2.68533545	    -50.81032447	     -0.88680746	      0.97532688	     13.79285002	      4.61672377	    -11.19465283	     -8.16766404	     11.19723118	    -12.85327345	    -26.09059843	     10.59465348	    143.10328863	     89.95437384	      0.00000000	      0.00000000	    -46.30815996	     24.96530887	      5.00184946	    127.86458919	     89.95437384	      0.00000000	      0.00000000
      0.33000000	     -6.29142289	      6.47490551	      1.77411977	     -0.51609660	      0.94857098	      0.22025189	    -20.10092117	     -5.18479927	     -5.11313504	    -20.80269780	     -0.36307557	    -32.09432017	     -7.47209986	     19.10674239	     40.02384518	    -12.75556210	      2.54902920	    -45.32294751	     -0.79103466	     -1.92624913	     12.02099461	      4.73100827	    -10.34341602	     -8.04313790	     10.96203507	    -12.93591209	    -26.21226739	     11.10720918	    143.48431133	     89.95437384	      0.00000000	      0.00000000	    -47.17209278	     24.88866841	      5.41204293	    128.30716432	     89.95437384	      0.00000000	      0.00000000
